<svg xmlns="http://www.w3.org/2000/svg" viewBox="0 0 348.72 120.41"><defs><style>.cls-1{fill:#e0ca02;stroke:#e0ca02;stroke-miterlimit:10;stroke-width:0.25px;}.cls-2{fill:#f0f0f0;}</style></defs><g id="Layer_2" data-name="Layer 2"><g id="Design"><g id="LOGO"><g id="Sword"><path class="cls-1" d="M108,44.37c0-.23,0-.46,0-.72a5.13,5.13,0,0,0-1.62,0,.71.71,0,0,1-.29,0,6.75,6.75,0,0,0-2.33.07c-1.1.2-2.21.4-3.3.65a11.61,11.61,0,0,0-1.51.5,6.74,6.74,0,0,0-.87.38c-.37.18-.69.39-.72.87a1.13,1.13,0,0,1-1.41.93l-.2-.08c-.52-.21-.6-.65-.23-1.08a14.41,14.41,0,0,1,2.18-2,20.16,20.16,0,0,1,3.23-2,5.73,5.73,0,0,0,.62-.38,18.72,18.72,0,0,1,3-1.51c.4-.19.86-.24,1.27-.4a8.38,8.38,0,0,1,1.39-.37c.53-.11,1-.26,1.58-.4a.76.76,0,0,0,.15-.08V37.62a3.24,3.24,0,0,1,1-2.57c-.06-.24-.11-.46-.17-.69a1.72,1.72,0,0,1,.15-1.33.83.83,0,0,0,.08-.42c0-.37,0-.74,0-1.11a9.7,9.7,0,0,1,.2-1c-.3-.15-.19-.45-.17-.72s.1-.41.14-.61a1.62,1.62,0,0,1,.5-.92.49.49,0,0,1-.25-.51,5.79,5.79,0,0,1,.23-1.5.49.49,0,0,0,0-.39,2.8,2.8,0,0,1-.16-.72,1.1,1.1,0,0,1,.2-.84c.07-.11.14-.21.2-.32a.41.41,0,0,0,0-.34,7.33,7.33,0,0,1-.24-1,1.42,1.42,0,0,1,.25-1,.59.59,0,0,0,.08-.47,4.22,4.22,0,0,1-.08-1,.76.76,0,0,1,.22-.49.6.6,0,0,0,0-.9,1.94,1.94,0,0,1-.23-.69,1.1,1.1,0,0,1,.14-1,.66.66,0,0,0,0-.64,1.62,1.62,0,0,1,0-1,2.17,2.17,0,0,1,.19-.44c.07-.16.27-.28.15-.49a.06.06,0,0,1,0-.07,1.49,1.49,0,0,0,.25-1c0-.59,0-1.19.06-1.78,0-.23,0-.45,0-.67-.07-1.06-.13-2.12-.23-3.18a3.53,3.53,0,0,0-.27-1,4.71,4.71,0,0,0-.87-1.54.9.9,0,0,1-.22-.42c0-.25-.09-.5-.13-.74a3,3,0,0,1,.16-1.48,3.52,3.52,0,0,1,.76-1.29,4.35,4.35,0,0,1,1.67-.92c.85-.25,1-.47,1.78-.4a3.83,3.83,0,0,1,1.84.38c1.21.89,1,1,1.41,2a2.29,2.29,0,0,1,.08,1,5,5,0,0,1-.48,1.61,6.77,6.77,0,0,0-.67,1.89c-.18.86-.37,1.72-.49,2.58s-.19,1.95-.28,2.93c0,.32,0,.65,0,1a2.6,2.6,0,0,0,.22,1.32,1.93,1.93,0,0,1,0,1.56c0,.1-.06.22-.09.32a.36.36,0,0,0,.08.38A1.71,1.71,0,0,1,116.1,19a1,1,0,0,0,0,.76,1.52,1.52,0,0,1,0,1.22.66.66,0,0,0,.1.7,1.72,1.72,0,0,1,.21,1.46,4.71,4.71,0,0,1-.22.59.39.39,0,0,0,0,.38,1.5,1.5,0,0,1,.1,1.29.68.68,0,0,0,.1.68,1.72,1.72,0,0,1,.16,1.47,1,1,0,0,1,0,.16,1.27,1.27,0,0,0,0,1.11,1.28,1.28,0,0,1-.12,1.21l.21.53a2.2,2.2,0,0,1,.15,1.41.86.86,0,0,0,0,.65,2.46,2.46,0,0,1-.16,2.38c0,.05-.13.07-.2.11s-.08-.13-.07-.19a1.45,1.45,0,0,1,.12-.35,2,2,0,0,0,0-1.76.92.92,0,0,1-.08-.71,2.21,2.21,0,0,0-.17-1.63.77.77,0,0,1,0-.83.86.86,0,0,0-.08-.92.57.57,0,0,1,0-.65,2.52,2.52,0,0,0,.21-.71,1.34,1.34,0,0,0-.45-1.46,2.59,2.59,0,0,0,.17-1.47l-.3-.09s0-.08,0-.11c.09-.24.17-.49.28-.73a2,2,0,0,0,.13-1.13,1.75,1.75,0,0,0-.31-.7.7.7,0,0,1-.06-.64,1.77,1.77,0,0,0,0-1.3.83.83,0,0,1,0-.72,1.74,1.74,0,0,0,.14-.38,1.4,1.4,0,0,0-.31-1.42.39.39,0,0,1-.1-.5c.07-.17.09-.36.16-.53a1.72,1.72,0,0,0-.08-1.37.64.64,0,0,0-.21-.25,1.87,1.87,0,0,0-.62-.23,7,7,0,0,0-2.29.11,1.48,1.48,0,0,0-.93.88,1.39,1.39,0,0,0-.08,1.16.74.74,0,0,1-.1.83.63.63,0,0,0-.12.34,2.08,2.08,0,0,0,.28,1.14,5.47,5.47,0,0,0,.36.43c-.1.12-.21.28-.34.41a.86.86,0,0,0-.28.78q0,.43.12.87a.42.42,0,0,1-.06.31A1.47,1.47,0,0,0,111,22.9a1.75,1.75,0,0,0,.22.77.34.34,0,0,1,0,.24,1.8,1.8,0,0,1-.21.35A1.57,1.57,0,0,0,111,26a4.05,4.05,0,0,0-.34,1.77c0,.18.06.25.28.24a1.54,1.54,0,0,1-.16.36,3.38,3.38,0,0,0-.53,1.57.77.77,0,0,0,.12.45.39.39,0,0,1,0,.3,3.87,3.87,0,0,0-.2.93c0,.37,0,.74.06,1.11a.35.35,0,0,1-.06.27,1.41,1.41,0,0,0-.2,1.24,2,2,0,0,0,.16.49.28.28,0,0,0,.36.16,17.45,17.45,0,0,1,1.76-.29c.51-.05,1,0,1.56,0a5.3,5.3,0,0,1,2.31.58c.25.1.52.16.76.27a.65.65,0,0,1,.32.29,5.29,5.29,0,0,1,.47,2.45,4.54,4.54,0,0,1-.09.51c0,.18-.07.36-.11.58a2.66,2.66,0,0,0,.4,0,5.1,5.1,0,0,1,2.06,0c.19,0,.4,0,.59.08s.51.17.77.25a7.06,7.06,0,0,0,.79.21c.57.09,1.15.14,1.72.26a5.68,5.68,0,0,1,1,.39c.52.23,1,.48,1.54.73.19.09.35.22.52.32.34.21.67.4,1,.62.48.32,1,.64,1.43,1s1.11.87,1.67,1.3a.83.83,0,0,1,.17.15,4.27,4.27,0,0,0,.92.83,1.2,1.2,0,0,1,.36.79,3.16,3.16,0,0,0-.48.36,1,1,0,0,1-1.56-.16,1.14,1.14,0,0,1-.22-.38c-.11-.51-.5-.73-.9-1l-.23-.1c-.42-.12-.84-.25-1.26-.36a2,2,0,0,1-.76-.36,1.87,1.87,0,0,0-.72-.25c-.41-.1-.82-.17-1.23-.25l-.62-.1c-.62-.11-1.23-.27-1.86-.35a6.78,6.78,0,0,0-2.29,0,8,8,0,0,1-1.1.12c-.4,0-.48.07-.56.45l-2.6,65.24a10.42,10.42,0,0,1-.54,2.32,11.08,11.08,0,0,0-.36,1.43c0,.21-.13.4-.18.61a8.6,8.6,0,0,0-.25,1,10,10,0,0,1-.34,1.44c-.16.43-.24.89-.36,1.33a.26.26,0,0,0,0,.15c-.22.59-.13.33-.22.59-.19.52-.29,1.18-.47,1.71a1,1,0,0,1-.37.44c-.09.07-.07.13-.09,0s-.19-.37-.22-.51c-.07-.37-.17-.74-.24-1.12,0-.18-.08-.37-.13-.56-.16-.62-.35-1.25-.52-1.87l-.81-3c0-.17-.11-.33-.16-.5-.29-1-.59-1.91-.86-2.87a6.71,6.71,0,0,1-.17-1.25c0-.48-.07-1-.09-1.45Zm5,.6a.36.36,0,0,0-.18-.25c-.65-.22-1.3-.45-2-.63a14.43,14.43,0,0,0-1.48-.33,3,3,0,0,0-1.12-.09L110.13,106l.24,3.93a19.47,19.47,0,0,0,.84,2.76c.06.15.09.31.14.46l.87,3.19c.14.51.26,1,.39,1.54l.48,1.88h.07c.1-.18,1-4.09,1.16-4.32l.19-.9c.06-.35.12-.71.21-1.05s.28-1,.41-1.46c.09-.29.17-.57.25-.85s.15-.4.2-.6L118.4,44a3,3,0,0,0,0-.32l-.47,0-2.23.33a3.73,3.73,0,0,0-.58.12c-.49.17-1,.37-1.45.55s-.44.22-.43.6l0,67.91c0,.07-.11.13-.17.2s-.15-.1-.19-.18Zm-5.25-1.72c.5,0,.86,0,1.21.11s.82.17,1.24.25a11.65,11.65,0,0,1,2.59.75,1.38,1.38,0,0,0,1.11,0c.31-.11.61-.26.92-.38a4,4,0,0,1,.68-.19l2.6-.38c.21,0,.45,0,.56-.29a.15.15,0,0,1,.25-.06c.18.2.4.14.59.12.37,0,.74-.13,1.1-.14a16.47,16.47,0,0,1,2.33,0c1,.11,2,.34,2.92.54a6.52,6.52,0,0,1,2.32.71,1,1,0,0,0,.18,0,5.24,5.24,0,0,1,.85.27,2.28,2.28,0,0,1,1.4,1.38.84.84,0,0,0,.25.37.63.63,0,0,0,.92,0,.25.25,0,0,0,.07-.3,3.91,3.91,0,0,0-1-1.39c-.39-.29-.78-.6-1.17-.91a13.91,13.91,0,0,0-2.31-1.55,2.85,2.85,0,0,1-.37-.23l-1-.58c-.16-.09-.34-.14-.51-.23a7.35,7.35,0,0,0-2.9-1,7.08,7.08,0,0,1-1.76-.43,8.59,8.59,0,0,0-1-.2,4.78,4.78,0,0,0-2-.07,1,1,0,0,1-.81-.1,1.16,1.16,0,0,0-.68-.15,1.14,1.14,0,0,1-.26,0,6.13,6.13,0,0,0-1.65-.17,3.34,3.34,0,0,1-.7-.08,5.51,5.51,0,0,0-1-.08c-.89,0-1.78.14-2.66.22a2.4,2.4,0,0,0-.66.11c-.2.09-.37.2-.55,0,0,0-.1,0-.14,0-.25,0-.51.09-.76.16a8.94,8.94,0,0,1-.88.27,2.6,2.6,0,0,0-1,.29.66.66,0,0,1-.15,0,8.93,8.93,0,0,0-1.89.63,8.39,8.39,0,0,1-.9.45,8.81,8.81,0,0,0-1.65.9c-.29.19-.59.36-.89.53l-1.36.77c-.16.1-.32.22-.48.33-.35.23-.71.45-1,.69-.54.4-1.06.81-1.58,1.24a2,2,0,0,0-.64.88c-.06.16,0,.27.16.36A.89.89,0,0,0,97,46.14a1.28,1.28,0,0,1,.74-1,10.24,10.24,0,0,1,2.86-1.09c.35-.08.7-.14,1.06-.21.59-.12,1.18-.27,1.77-.36a7.57,7.57,0,0,1,2.51-.13h.19ZM114.35.38a12.06,12.06,0,0,0-2,.55,3.25,3.25,0,0,0-1.21.72,2.93,2.93,0,0,0-.86,2.55l0,.31a1.66,1.66,0,0,0,.37.87,6,6,0,0,1,1.16,3.23c0,.78.13,1.56.17,2.34a12.15,12.15,0,0,1-.09,3.07,2.14,2.14,0,0,0,0,.36,6.06,6.06,0,0,1,3.4-.22c0-.42.1-.82.1-1.23a21.4,21.4,0,0,1,.44-4.14,14.29,14.29,0,0,1,1.2-4,2.77,2.77,0,0,0,.28-1.94,2.8,2.8,0,0,0-1-1.86Zm2.8,38.69s0,0,0-.08a4.09,4.09,0,0,0-.28-3.16c-.09-.19-.21-.2-.39-.1l-.17.1a.9.9,0,0,0-.56-.47,5,5,0,0,0-2.23-.44h-.07c-.44,0-.89,0-1.33,0s-1,.16-1.46.23a1.52,1.52,0,0,0-1.31,1.1,3.84,3.84,0,0,0-.18.83,4.14,4.14,0,0,0,.08,1.78l1.44-.15,1-.08.74-.05a4.37,4.37,0,0,1,1.25.08,2.37,2.37,0,0,0,.7.06,3.67,3.67,0,0,1,1.32.13.83.83,0,0,0,.22,0Z"/></g><g id="Logo-2" data-name="Logo"><path class="cls-2" d="M0,50.63a9.58,9.58,0,0,0,1.59.42c.71.14,1.49.26,2.36.36a19.15,19.15,0,0,0,2.39.16L0,52.14Zm202.85.94v1.56H0V51.57ZM3.59,53v.16a3.18,3.18,0,0,0-2.19.93,3,3,0,0,0-.88,2.19v.88l-.52,0V53Zm9.93,34.25V91H9.36V90.5H10a3.15,3.15,0,0,0,2.31-1,3.32,3.32,0,0,0,1-2.32Zm3.22-34.33V91H13.36V52.89l1.49-7Zm-.15,34.33h.15a3.38,3.38,0,0,0,1,2.32,3.15,3.15,0,0,0,2.31,1h.68V91H16.59ZM202.85,50.63v1.51l-6.34-.57a18.89,18.89,0,0,0,2.42-.16c.85-.1,1.63-.22,2.36-.36A7.71,7.71,0,0,0,202.85,50.63Zm0,2.34v4.21l-.52,0v-.88a2.92,2.92,0,0,0-.91-2.19,3.18,3.18,0,0,0-2.15-.93V53Z"/><path class="cls-2" d="M29.75,63.15H29.6a2.82,2.82,0,0,0-.91-2,3,3,0,0,0-2.11-.81H26v-.52h3.79Zm0,24.54V91H26V90.5h.62a3,3,0,0,0,2.11-.83,2.89,2.89,0,0,0,.91-2Zm3.17-27.87V91H29.6V59.82Zm19.71,15v1.56H32.35V74.85ZM32.77,63.15V59.82h3.79v.52h-.62a3,3,0,0,0-2.13.81,2.58,2.58,0,0,0-.89,2Zm0,24.54h.15a2.63,2.63,0,0,0,.89,2,3,3,0,0,0,2.13.83h.62V91H32.77Zm19.5-24.54h-.16a2.78,2.78,0,0,0-.91-2,2.94,2.94,0,0,0-2.1-.81h-.63v-.52h3.8Zm0,24.54V91h-3.8V90.5h.63a2.91,2.91,0,0,0,2.1-.83,2.84,2.84,0,0,0,.91-2Zm3.17-27.87V91H52.11V59.82Zm-.16,3.33V59.82h3.8v.52h-.62a3,3,0,0,0-2.11.81,2.78,2.78,0,0,0-.91,2Zm0,24.54h.16a2.84,2.84,0,0,0,.91,2,2.92,2.92,0,0,0,2.11.83h.62V91h-3.8Z"/><path class="cls-2" d="M68.54,63.1h-.1a2.81,2.81,0,0,0-.88-2,2.94,2.94,0,0,0-2.08-.78h-.73v-.52h4.42Zm0,24.59L69.17,91H64.75V90.5h.73a2.85,2.85,0,0,0,2.08-.83,2.94,2.94,0,0,0,.88-2Zm3.18-27.87V91H68.39V59.82Zm-.16,27.87h.16a2.92,2.92,0,0,0,3,2.81h.67l.06.52H70.94ZM77.8,59.82a15.62,15.62,0,0,1,4.39.57,9.65,9.65,0,0,1,3.33,1.67,7.24,7.24,0,0,1,2.11,2.65,8.34,8.34,0,0,1,.72,3.53,8.25,8.25,0,0,1-1,4.06,8.66,8.66,0,0,1-2.89,3.07,9.45,9.45,0,0,1-4.19,1.45,6.54,6.54,0,0,1,2.06,1.62,22,22,0,0,1,2,2.44c.9,1.21,1.71,2.26,2.42,3.15s1.41,1.72,2.1,2.52,1.4,1.49,2,2.08a7,7,0,0,0,2,1.38,5.82,5.82,0,0,0,2.47.49V91H93.66A12.87,12.87,0,0,1,89,90.29a9.38,9.38,0,0,1-3-1.79,23.07,23.07,0,0,1-2-2.06q-.21-.25-1-1.32c-.51-.71-1-1.48-1.64-2.32l-1.61-2.26c-.49-.67-.78-1.08-.89-1.22A13.68,13.68,0,0,0,76.5,76.9a4.55,4.55,0,0,0-2.86-1.06v-.52c1.11,0,2.1,0,3,0s1.94-.12,2.92-.24A5.7,5.7,0,0,0,82.25,74a6.2,6.2,0,0,0,2-3.12,6.42,6.42,0,0,0,.31-1.35,7.8,7.8,0,0,0,0-1.61,7.25,7.25,0,0,0-.54-2.6,5.79,5.79,0,0,0-1.41-2A6.77,6.77,0,0,0,80.5,62a8.94,8.94,0,0,0-2.8-.52c-1.63-.06-3.06-.08-4.27,0a10.4,10.4,0,0,1-1.82,0,2.79,2.79,0,0,0-.13-.44q-.14-.39-.39-1.17Z"/><path class="cls-2" d="M112.8,59.09a19.72,19.72,0,0,1,6.83,1.17,16.86,16.86,0,0,1,5.62,3.36A15.47,15.47,0,0,1,129,68.79a17,17,0,0,1,0,13.26,15.47,15.47,0,0,1-3.77,5.17,16.86,16.86,0,0,1-5.62,3.36,20.49,20.49,0,0,1-13.65,0,17.13,17.13,0,0,1-5.59-3.36,15.47,15.47,0,0,1-3.77-5.17,17,17,0,0,1,0-13.26,15.47,15.47,0,0,1,3.77-5.17A17.13,17.13,0,0,1,106,60.26,19.58,19.58,0,0,1,112.8,59.09Zm0,31.1a13.27,13.27,0,0,0,11.9-7.07,17.24,17.24,0,0,0,0-15.42,13.53,13.53,0,0,0-4.94-5.18,13.81,13.81,0,0,0-13.88,0,13.53,13.53,0,0,0-4.94,5.18,17.24,17.24,0,0,0,0,15.42,13.44,13.44,0,0,0,4.94,5.2A13.25,13.25,0,0,0,112.8,90.19Z"/><path class="cls-2" d="M138.38,87.8V91h-3.9V90.5h.88a2.85,2.85,0,0,0,2-.78,2.51,2.51,0,0,0,.83-1.92ZM138.28,59,140.51,62,140.56,91h-2.34V65.54a55.55,55.55,0,0,0-.46-6.5Zm0,0,28.8,27.14.52,5.57-28.8-27.3Zm2.28,28.76a2.5,2.5,0,0,0,.86,1.92,2.88,2.88,0,0,0,2,.78h.89V91h-3.9V87.8ZM165.32,63a2.71,2.71,0,0,0-.89-1.92,2.85,2.85,0,0,0-2-.78h-.88v-.52h3.9V63Zm2.28-3.22V85.09c0,1.11,0,2.18.11,3.2s.19,2.18.36,3.46h-.47L165.32,89V59.82ZM167.45,63V59.82h3.9v.52h-.89a2.88,2.88,0,0,0-2,.78A2.5,2.5,0,0,0,167.6,63Z"/><path class="cls-2" d="M179.88,63.1h-.11a2.77,2.77,0,0,0-.88-2,3,3,0,0,0-2.14-.78H176v-.52h4.52Zm0,24.59.67,3.33H176V90.5h.72a2.93,2.93,0,0,0,3-2.81Zm3.22-27.87V91h-3.33V59.82Zm13.94,0v1.61H183V59.82Zm-2.4,14.82V76.2H183V74.64Zm2.45,14.77L197,91H183V89.41ZM200,83.58,197.14,91h-7.91L191,89.41a9.72,9.72,0,0,0,4.19-.76,6.67,6.67,0,0,0,2.57-2.08,15.18,15.18,0,0,0,1.72-3ZM197,59v1.35l-5.93-.52a21.08,21.08,0,0,0,3.43-.29A15,15,0,0,0,197,59Zm-2.4,12.79v3h-2.7v-.1a2,2,0,0,0,1.61-.65,2.34,2.34,0,0,0,.52-1.53v-.68Zm0,4.32v3h-.57v-.68a2.36,2.36,0,0,0-.52-1.53,2,2,0,0,0-1.61-.65v-.1ZM197,61.28v3.58h-.58v-.78a2.7,2.7,0,0,0-.7-1.87,2.43,2.43,0,0,0-1.9-.78v-.15Z"/><path class="cls-2" d="M223.14,58.36H219a4.43,4.43,0,0,0-2-2.47,5.45,5.45,0,0,0-2.58-.75H214v-.52h11.54v.52h-.47a2.2,2.2,0,0,0-2,3.22Zm-5.31-3.43h4.22L231.72,86l-.89,5.66Zm23.3-1.14.42,4.21-9.16,27.87c-.34,1.22-.6,2.26-.78,3.15a18.33,18.33,0,0,0-.31,2.62h-.47L229.9,87l10.76-33.23Zm0,.05,10.92,30.63-1.14,7.17L239.36,59.46Zm21.11,1.09-9.72,30.94c-.35,1.25-.62,2.32-.81,3.2a15.78,15.78,0,0,0-.34,2.57h-.46l-.63-5.14,9-31.57Zm-3.9,3.43a2.59,2.59,0,0,0-.26-2.39,2.12,2.12,0,0,0-1.71-.83h-.47v-.52h10.24v.52h-.41a5.55,5.55,0,0,0-2.6.75,4.17,4.17,0,0,0-2,2.47Z"/><path class="cls-2" d="M267.86,87.22a2.34,2.34,0,0,0,.15,2.42,2.16,2.16,0,0,0,1.67.86h.41V91h-9.93V90.5h.42a4,4,0,0,0,2.23-.75,5.93,5.93,0,0,0,2-2.53Zm10-28.13.36,3.59L266.35,90.86h-3.28L275.4,64.45q.57-1.25,1-2.16c.26-.61.49-1.2.7-1.79a6.73,6.73,0,0,0,.37-1.41ZM284,78.9v1.56H270.25V78.9ZM277.9,59.09l14.29,31.62h-4.1L277,63.72Zm8.78,28.13h3.95a5.72,5.72,0,0,0,1.93,2.53,4,4,0,0,0,2.18.75h.42V91H284.5V90.5h.42a2.13,2.13,0,0,0,1.61-.86A2.34,2.34,0,0,0,286.68,87.22Z"/><path class="cls-2" d="M301.55,63.1h-.1a2.77,2.77,0,0,0-.88-2,2.94,2.94,0,0,0-2.08-.78h-.73v-.52h4.42Zm0,24.59.63,3.33h-4.42V90.5h.73a2.85,2.85,0,0,0,2.08-.83,2.9,2.9,0,0,0,.88-2Zm3.18-27.87V91H301.4V59.82Zm-.16,27.87h.16a2.9,2.9,0,0,0,.88,2,2.83,2.83,0,0,0,2.08.83h.68l.05.52H304Zm6.24-27.87a15.62,15.62,0,0,1,4.39.57,9.65,9.65,0,0,1,3.33,1.67,7.24,7.24,0,0,1,2.11,2.65,8.65,8.65,0,0,1-.31,7.59,8.66,8.66,0,0,1-2.89,3.07,9.45,9.45,0,0,1-4.19,1.45,6.54,6.54,0,0,1,2.06,1.62,20.88,20.88,0,0,1,2,2.44c.9,1.21,1.71,2.26,2.42,3.15s1.41,1.72,2.1,2.52,1.4,1.49,2,2.08a7,7,0,0,0,2,1.38,5.82,5.82,0,0,0,2.47.49V91h-1.61a12.87,12.87,0,0,1-4.71-.73,9.38,9.38,0,0,1-3-1.79,23.07,23.07,0,0,1-2-2.06q-.21-.25-1-1.32c-.51-.71-1.05-1.48-1.64-2.32l-1.61-2.26c-.49-.67-.78-1.08-.89-1.22a13.68,13.68,0,0,0-2.39-2.42,4.53,4.53,0,0,0-2.86-1.06v-.52c1.11,0,2.1,0,3,0s1.95-.12,2.92-.24A5.7,5.7,0,0,0,315.26,74a6.13,6.13,0,0,0,2-3.12,6.42,6.42,0,0,0,.31-1.35,7.8,7.8,0,0,0,.05-1.61,7,7,0,0,0-.54-2.6,5.79,5.79,0,0,0-1.41-2,6.66,6.66,0,0,0-2.16-1.3,8.94,8.94,0,0,0-2.8-.52c-1.63-.06-3-.08-4.27,0a10.4,10.4,0,0,1-1.82,0,2.79,2.79,0,0,0-.13-.44q-.12-.39-.39-1.17Z"/><path class="cls-2" d="M339.67,59.09c1,0,1.82,0,2.55.11s1.36.14,1.9.23a11.9,11.9,0,0,1,1.4.31l1.07.34.05,5.15H346a4.16,4.16,0,0,0-1.45-3.36,8.25,8.25,0,0,0-9,.21,4.19,4.19,0,0,0-1.8,3.51A5.15,5.15,0,0,0,334,67a4.7,4.7,0,0,0,.62,1.38,6.47,6.47,0,0,0,1.22,1.35l10.51,8.11a5.91,5.91,0,0,1,1.76,2.52,9.6,9.6,0,0,1,.63,3,7.32,7.32,0,0,1-1.2,4.21,8.94,8.94,0,0,1-3.35,3,9.75,9.75,0,0,1-4.66,1.12,22.72,22.72,0,0,1-3.25-.26,17,17,0,0,1-3.25-.81,8,8,0,0,1-2.49-1.38,8.54,8.54,0,0,1-.16-1.84,16.59,16.59,0,0,1,.18-2.37,15.09,15.09,0,0,1,.5-2.23h.62a7,7,0,0,0,.68,4,5.77,5.77,0,0,0,2.6,2.52,8.47,8.47,0,0,0,4,.81A8.15,8.15,0,0,0,344,88.55a5,5,0,0,0,1.85-4.08A5.21,5.21,0,0,0,344,80.31l-10.4-8a6.42,6.42,0,0,1-2-2.76,8.63,8.63,0,0,1-.52-2.86,6.77,6.77,0,0,1,1.14-3.84,8.14,8.14,0,0,1,3.1-2.73A9.23,9.23,0,0,1,339.67,59.09Zm6.86.47.06.94h-3.7v-.94Z"/></g></g></g></g></svg>